#!OML:ASF I:\Actors\actors\Patient Classification 2\Patient 1\Session 1\actor1.ASF
:FULLY-SPECIFIED
:DEGREES
142
root -0.772965 18.0261 5.99695 -2.92601 -7.31939 -6.06147
lowerback -0.920531 2.20541 -1.7004
upperback -2.01384 2.91943 -1.31634
thorax -1.56451 1.47208 -0.411329
lowerneck -11.5565 -3.6532 -0.474646
upperneck 14.531 -6.0248 6.691
head 6.55755 -2.39942 1.66645
rclavicle 3.24019e-014 1.43125e-014
rhumerus 7.72952 16.0054 -50.5525
rradius 109.08
rwrist 6.34767
rhand -26.9966 -14.1322
rfingers 7.12502
rthumb -0.416775 -44.1115
lclavicle 3.24019e-014 1.43125e-014
lhumerus -46.6866 -2.43342 80.4762
lradius 57.5959
lwrist 2.86578
lhand 0.531772 -21.2902
lfingers 7.12502
lthumb 26.0996 6.93637
rfemur 12.6933 2.25693 21.3561
rtibia -4.13472e-014
rfoot -16.3323 -8.59598
rtoes 1.55023
lfemur 25.3374 -5.67241 -13.2663
ltibia -22.5387
lfoot -3.12094 20.9546
ltoes -4.7661
143
root -0.745496 18.0442 5.97732 -2.44453 -6.94056 -6.12926
lowerback -0.531435 2.39294 -1.03983
upperback -2.26328 3.15429 -1.61417
thorax -1.98768 1.57729 -1.11047
lowerneck -11.2856 -3.66724 -0.390067
upperneck 14.301 -6.00673 6.5152
head 6.4279 -2.41248 1.60356
rclavicle -5.56597e-015 9.54166e-015
rhumerus 10.7573 7.45128 -51.7282
rradius 110.92
rwrist -1.24328
rhand -30.0375 -16.1286
rfingers 7.12502
rthumb -3.35364 -46.082
lclavicle -5.56597e-015 9.54166e-015
lhumerus -47.2701 -3.34686 79.861
lradius 59.4176
lwrist 3.83236
lhand 0.00407274 -21.2568
lfingers 7.12502
lthumb 25.5943 7.04341
rfemur 12.0577 1.92031 21.2485
rtibia -1.59028e-014
rfoot -16.2183 -8.63887
rtoes 1.63693
lfemur 24.68 -5.88406 -13.2527
ltibia -22.7344
lfoot -2.69194 20.9629
ltoes -4.90028
144
root -0.740337 18.0527 5.96653 -2.18255 -5.7378 -6.27922
lowerback -0.20978 2.40386 -0.688308
upperback -2.34321 3.16079 -1.86212
thorax -2.21753 1.5713 -1.57794
lowerneck -11.0573 -3.6946 -0.494024
upperneck 14.0517 -5.99385 6.46457
head 6.30944 -2.42721 1.61031
rclavicle 2.38542e-015 9.54166e-015
rhumerus 13.8237 -1.35682 -53.6783
rradius 112.361
rwrist -7.46694
rhand -32.3201 -20.2712
rfingers 7.12502
rthumb -5.5578 -50.1783
lclavicle 2.38542e-015 9.54166e-015
lhumerus -47.6473 -4.34287 79.2734
lradius 61.2122
lwrist 4.52866
lhand -0.449696 -21.2265
lfingers 7.12502
lthumb 25.1596 7.13546
rfemur 11.8693 0.732901 21.2914
rtibia -2.38542e-014
rfoot -16.3083 -8.5329
rtoes 2.02836
lfemur 24.1816 -6.34548 -12.9711
ltibia -23.0084
lfoot -2.07265 20.415
ltoes -5.4286
145
root -0.738907 18.0609 5.95318 -1.94281 -4.47637 -6.41058
lowerback 0.156814 2.46844 -0.494341
upperback -2.388 3.23895 -2.07218
thorax -2.44539 1.60346 -1.92221
lowerneck -10.8646 -3.7343 -0.754373
upperneck 13.697 -5.97279 6.46288
head 6.16965 -2.44384 1.65857
rclavicle -4.37326e-014 4.77083e-015
rhumerus 17.1515 -10.398 -56.3405
rradius 113.496
rwrist -12.8617
rhand -33.5175 -22.3113
rfingers 7.12502
rthumb -6.7138 -52.1848
lclavicle -4.37326e-014 4.77083e-015
lhumerus -47.6425 -5.45686 78.8531
lradius 62.6995
lwrist 5.05755
lhand -1.24065 -21.3966
lfingers 7.12502
lthumb 24.4015 7.06959
rfemur 11.6968 -0.515203 21.3364
rtibia 4.13472e-014
rfoot -16.3586 -8.47189
rtoes 2.10363
lfemur 23.6985 -6.69844 -12.6635
ltibia -23.3483
lfoot -1.42101 19.7342
ltoes -6.21383
146
root -0.739236 18.0672 5.9373 -1.76246 -3.16631 -6.55796
lowerback 0.670921 2.52843 -0.479561
upperback -2.45008 3.30773 -2.17468
thorax -2.79002 1.63442 -2.06565
lowerneck -10.6542 -3.71538 -1.1577
upperneck 13.2797 -5.85587 6.52913
head 6.00979 -2.41713 1.76051
rclavicle -3.63776e-014 2.22639e-014
rhumerus 20.8104 -18.8059 -59.6386
rradius 114.237
rwrist -15.1452
rhand -36.3319 -25.0554
rfingers 7.12502
rthumb -9.4301 -54.8244
lclavicle -3.63776e-014 2.22639e-014
lhumerus -47.3787 -6.51016 78.6157
lradius 63.8895
lwrist 5.41573
lhand -2.15828 -21.5434
lfingers 7.12502
lthumb 23.5216 7.03839
rfemur 11.5764 -1.81408 21.408
rtibia 1.43125e-014
rfoot -16.3968 -8.39017
rtoes 2.28625
lfemur 23.2349 -6.97565 -12.3155
ltibia -23.7024
lfoot -0.739242 18.9402
ltoes -7.11303
147
root -0.739923 18.0716 5.92051 -1.67586 -1.896 -6.74579
lowerback 1.283 2.64752 -0.474167
upperback -2.54597 3.45293 -2.25323
thorax -3.22459 1.70277 -2.19028
lowerneck -10.231 -3.68435 -1.50423
upperneck 12.7556 -5.73233 6.63066
head 5.77941 -2.38777 1.86829
rclavicle -3.71727e-014 -3.18055e-015
rhumerus 24.9898 -26.1211 -63.7707
rradius 114.252
rwrist -15.2025
rhand -38.6969 -26.561
rfingers 7.12502
rthumb -11.7114 -56.2137
lclavicle -3.71727e-014 -3.18055e-015
lhumerus -46.9028 -7.23557 78.4143
lradius 64.8333
lwrist 5.38403
lhand -2.7914 -21.6294
lfingers 7.12502
lthumb 22.9141 7.02902
rfemur 11.5357 -3.07588 21.5224
rtibia -1.59028e-014
rfoot -16.4478 -8.25303
rtoes 3.15714
lfemur 22.8491 -7.26987 -11.9514
ltibia -24.0236
lfoot -0.0428529 18.1675
ltoes -7.95067
148
root -0.741038 18.0756 5.89998 -1.69335 -0.719818 -6.92272
lowerback 2.03243 2.81186 -0.431364
upperback -2.68224 3.65498 -2.37159
thorax -3.77234 1.79604 -2.39268
lowerneck -9.64508 -3.65812 -1.54304
upperneck 12.1435 -5.65118 6.66585
head 5.4864 -2.37395 1.90402
rclavicle -2.66371e-014 -3.97569e-014
rhumerus 29.6137 -32.0652 -68.8646
rradius 113.621
rwrist -11.7094
rhand -40.6525 -31.6749
rfingers 7.12502
rthumb -13.5968 -61.2108
lclavicle -2.66371e-014 -3.97569e-014
lhumerus -46.3675 -8.06205 78.323
lradius 65.8414
lwrist 5.59464
lhand -3.15809 -20.6475
lfingers 7.12502
lthumb 22.5622 8.05408
rfemur 11.5772 -4.24512 21.6214
rtibia 5.40694e-014
rfoot -16.4373 -8.14238
rtoes 3.93403
lfemur 22.5781 -7.68764 -11.6612
ltibia -24.3191
lfoot 0.622856 17.583
ltoes -8.98594
149
root -0.742597 18.0802 5.87695 -1.73953 0.332774 -7.09766
lowerback 2.82742 2.94729 -0.340805
upperback -2.79458 3.82132 -2.46199
thorax -4.32156 1.86903 -2.5986
lowerneck -9.38305 -3.56203 -1.43813
upperneck 11.7207 -5.51309 6.72078
head 5.3033 -2.31298 1.92081
rclavicle -1.41137e-014 5.08889e-014
rhumerus 34.0759 -35.7202 -74.0457
rradius 113.548
rwrist -12.6754
rhand -44.8886 -32.9279
rfingers 7.12502
rthumb -17.6764 -62.1445
lclavicle -1.41137e-014 5.08889e-014
lhumerus -45.7209 -8.7235 78.155
lradius 66.0976
lwrist 5.82389
lhand -3.75961 -21.8274
lfingers 7.12502
lthumb 21.9848 6.94321
rfemur 11.6241 -5.29339 21.7249
rtibia -2.8625e-014
rfoot -16.3803 -8.10252
rtoes 4.23985
lfemur 22.3562 -8.21487 -11.4096
ltibia -24.5944
lfoot 1.11626 17.2266
ltoes -9.56361
150
root -0.745659 18.0831 5.85546 -1.76615 1.1689 -7.32667
lowerback 3.42994 3.08045 -0.123749
upperback -2.84018 3.99973 -2.49257
thorax -4.68718 1.94573 -2.80344
lowerneck -9.51568 -3.41993 -1.33033
upperneck 11.6046 -5.34015 6.81667
head 5.28265 -2.21648 1.94503
rclavicle 3.79679e-014 0
rhumerus 37.4641 -37.1599 -78.4278
rradius 113.209
rwrist -10.763
rhand -46.5259 -39.88
rfingers 7.12502
rthumb -19.2514 -68.9471
lclavicle 3.79679e-014 0
lhumerus -45.0216 -9.26327 78.1711
lradius 66.3651
lwrist 6.0288
lhand -4.62974 -21.9399
lfingers 7.12502
lthumb 21.1491 6.92654
rfemur 11.6232 -6.13382 21.9179
rtibia -7.95139e-015
rfoot -16.324 -8.08432
rtoes 4.58157
lfemur 22.1477 -8.53524 -11.0722
ltibia -24.8297
lfoot 1.46498 16.8555
ltoes -9.59675
151
root -0.750221 18.083 5.83841 -1.80892 1.67619 -7.5609
lowerback 3.75146 3.18822 0.0910763
upperback -2.85683 4.1544 -2.44264
thorax -4.86891 2.01364 -2.90469
lowerneck -9.75532 -3.20212 -1.04002
upperneck 11.7557 -5.09504 6.79735
head 5.35272 -2.07551 1.90722
rclavicle -6.76862e-014 2.38542e-014
rhumerus 38.7262 -36.3699 -80.9123
rradius 113.815
rwrist -13.8625
rhand -47.6264 -41.1091
rfingers 7.12502
rthumb -20.3094 -70.0672
lclavicle -6.76862e-014 2.38542e-014
lhumerus -44.4955 -9.54831 78.2196
lradius 66.4859
lwrist 6.2897
lhand -5.38367 -21.7557
lfingers 7.12502
lthumb 20.4247 7.19005
rfemur 11.6126 -6.65394 22.1513
rtibia -4.77083e-015
rfoot -16.1759 -8.12161
rtoes 4.35946
lfemur 22.0324 -8.54736 -10.7236
ltibia -25.005
lfoot 1.75115 16.4537
ltoes -9.92402
152
root -0.754549 18.0822 5.82789 -1.85903 1.85327 -7.66849
lowerback 3.77912 3.28949 0.171272
upperback -2.7736 4.30063 -2.32845
thorax -4.79341 2.08697 -2.83968
lowerneck -10.2029 -2.92059 -0.577628
upperneck 12.0211 -4.78231 6.63465
head 5.48466 -1.89629 1.79963
rclavicle -4.96962e-015 -1.74931e-014
rhumerus 37.5264 -33.3344 -80.5427
rradius 114.44
rwrist -15.3789
rhand -47.3025 -41.0037
rfingers 7.12502
rthumb -19.9981 -69.9947
lclavicle -4.96962e-015 -1.74931e-014
lhumerus -44.0036 -9.53683 78.3
lradius 66.4301
lwrist 6.38525
lhand -5.87091 -21.5001
lfingers 7.12502
lthumb 19.9564 7.49517
rfemur 11.6105 -6.84144 22.2671
rtibia 7.95139e-015
rfoot -15.9872 -8.2233
rtoes 3.54607
lfemur 22.0403 -8.50986 -10.5634
ltibia -25.1184
lfoot 1.91669 16.2841
ltoes -10.3594
